<?xml version="1.0" encoding="utf-8"?>
<!-- Generator: Adobe Illustrator 25.0.0, SVG Export Plug-In . SVG Version: 6.00 Build 0)  -->
<svg version="1.1" id="Layer_1" xmlns="http://www.w3.org/2000/svg" xmlns:xlink="http://www.w3.org/1999/xlink" x="0px" y="0px"
	 viewBox="0 0 218.1 221.1" style="enable-background:new 0 0 218.1 221.1;" xml:space="preserve">
<style type="text/css">
	.st0{fill:#FFFFFF;}
	.st1{fill:#1D4E9C;}
	.st2{fill:#FFF14B;}
	.st3{enable-background:new    ;}
</style>
<g>
	<g>
		<rect x="17.2" y="18.5" class="st0" width="183.2" height="124.4"/>
		<path class="st0" d="M108.8,81.9"/>
	</g>
	<g>
		<rect x="20.7" y="21.9" class="st1" width="176.1" height="117.4"/>
		<path class="st1" d="M108.8,80.6"/>
	</g>
	<g>
		<polygon class="st2" points="105,47.5 108.8,44.8 112.5,47.5 111.1,43.1 114.8,40.4 110.2,40.4 108.8,36 107.3,40.4 102.7,40.4 
			106.5,43.1 		"/>
		<polygon class="st2" points="85.8,52.7 89.5,50 93.2,52.7 91.8,48.3 95.6,45.6 90.9,45.6 89.5,41.1 88.1,45.6 83.4,45.6 
			87.2,48.3 		"/>
		<polygon class="st2" points="75.5,55.2 74,59.7 69.4,59.7 73.1,62.4 71.7,66.8 75.5,64.1 79.2,66.8 77.8,62.4 81.5,59.7 
			76.9,59.7 		"/>
		<polygon class="st2" points="70.3,83.3 74,86 72.6,81.6 76.4,78.9 71.7,78.9 70.3,74.4 68.9,78.9 64.2,78.9 68,81.6 66.6,86 		"/>
		<polygon class="st2" points="76.9,98.1 75.5,93.7 74,98.2 69.4,98.1 73.1,100.9 71.7,105.2 75.5,102.5 79.2,105.2 77.8,100.9 
			81.5,98.1 		"/>
		<polygon class="st2" points="91,112.2 89.5,107.8 88.1,112.3 83.5,112.2 87.2,115 85.8,119.3 89.6,116.6 93.3,119.3 91.9,115 
			95.6,112.2 		"/>
		<polygon class="st2" points="110.2,117.4 108.8,112.9 107.3,117.4 102.7,117.4 106.5,120.1 105,124.5 108.8,121.7 112.5,124.5 
			111.1,120.1 114.8,117.4 		"/>
		<polygon class="st2" points="129.4,112.2 128,107.8 126.5,112.3 121.9,112.2 125.7,115 124.2,119.3 128,116.6 131.7,119.3 
			130.3,115 134,112.2 		"/>
		<polygon class="st2" points="143.5,98.1 142.1,93.7 140.6,98.2 136,98.1 139.8,100.9 138.3,105.2 142.1,102.5 145.8,105.2 
			144.4,100.9 148.1,98.1 		"/>
		<polygon class="st2" points="153.2,78.8 148.6,78.8 147.2,74.4 145.7,78.8 141.1,78.8 144.9,81.5 143.5,85.9 147.2,83.2 
			150.9,85.9 149.5,81.5 		"/>
		<polygon class="st2" points="138.3,66.7 142.1,64 145.8,66.7 144.4,62.3 148.1,59.6 143.5,59.6 142.1,55.2 140.6,59.6 136,59.6 
			139.8,62.3 		"/>
		<polygon class="st2" points="128,41.1 126.6,45.6 121.9,45.6 125.7,48.3 124.3,52.7 128,50 131.7,52.7 130.3,48.3 134.1,45.6 
			129.4,45.6 		"/>
	</g>
</g>
<g class="st3">
	<path class="st1" d="M18.3,172.9v-15h11.1v2.5h-8.1v3.3h7.5v2.5h-7.5v4.1h8.4v2.5H18.3z"/>
	<path class="st1" d="M39.5,172.9v-1.6c-0.4,0.6-0.9,1-1.6,1.4c-0.6,0.3-1.3,0.5-2,0.5c-0.7,0-1.4-0.2-2-0.5c-0.6-0.3-1-0.8-1.3-1.4
		c-0.3-0.6-0.4-1.4-0.4-2.4V162h2.9v5c0,1.5,0.1,2.5,0.2,2.8c0.1,0.3,0.3,0.6,0.6,0.8c0.3,0.2,0.6,0.3,1.1,0.3
		c0.5,0,0.9-0.1,1.3-0.4c0.4-0.3,0.7-0.6,0.8-1c0.1-0.4,0.2-1.4,0.2-2.9V162h2.9v10.9H39.5z"/>
	<path class="st1" d="M47.9,172.9H45V162h2.7v1.5c0.5-0.7,0.9-1.2,1.2-1.4c0.4-0.2,0.8-0.3,1.2-0.3c0.7,0,1.3,0.2,1.9,0.5l-0.9,2.5
		c-0.5-0.3-0.9-0.5-1.4-0.5c-0.4,0-0.7,0.1-1,0.3c-0.3,0.2-0.5,0.6-0.7,1.2c-0.2,0.6-0.2,1.8-0.2,3.7V172.9z"/>
	<path class="st1" d="M52.6,167.3c0-1,0.2-1.9,0.7-2.8c0.5-0.9,1.1-1.6,2-2.1c0.9-0.5,1.8-0.7,2.9-0.7c1.6,0,3,0.5,4.1,1.6
		c1.1,1.1,1.6,2.4,1.6,4.1c0,1.6-0.5,3-1.6,4.1c-1.1,1.1-2.4,1.6-4,1.6c-1,0-2-0.2-2.9-0.7c-0.9-0.5-1.6-1.1-2.1-2
		C52.9,169.6,52.6,168.5,52.6,167.3z M55.6,167.4c0,1.1,0.3,1.9,0.8,2.5c0.5,0.6,1.1,0.9,1.9,0.9s1.4-0.3,1.9-0.9
		c0.5-0.6,0.8-1.4,0.8-2.5c0-1.1-0.3-1.9-0.8-2.5c-0.5-0.6-1.1-0.9-1.9-0.9s-1.4,0.3-1.9,0.9C55.8,165.5,55.6,166.3,55.6,167.4z"/>
	<path class="st1" d="M65.4,167.3c0-1,0.2-1.9,0.7-2.8c0.5-0.9,1.1-1.6,2-2.1c0.9-0.5,1.8-0.7,2.9-0.7c1.6,0,3,0.5,4.1,1.6
		c1.1,1.1,1.6,2.4,1.6,4.1c0,1.6-0.5,3-1.6,4.1c-1.1,1.1-2.4,1.6-4,1.6c-1,0-2-0.2-2.9-0.7c-0.9-0.5-1.6-1.1-2.1-2
		C65.7,169.6,65.4,168.5,65.4,167.3z M68.4,167.4c0,1.1,0.3,1.9,0.8,2.5c0.5,0.6,1.1,0.9,1.9,0.9s1.4-0.3,1.9-0.9
		c0.5-0.6,0.8-1.4,0.8-2.5c0-1.1-0.3-1.9-0.8-2.5c-0.5-0.6-1.1-0.9-1.9-0.9s-1.4,0.3-1.9,0.9C68.7,165.5,68.4,166.3,68.4,167.4z"/>
	<path class="st1" d="M78.9,162h2.7v1.6c0.3-0.5,0.8-1,1.4-1.3c0.6-0.3,1.3-0.5,2-0.5c1.3,0,2.3,0.5,3.2,1.5s1.3,2.4,1.3,4.1
		c0,1.8-0.4,3.2-1.3,4.2c-0.9,1-2,1.5-3.2,1.5c-0.6,0-1.1-0.1-1.6-0.4c-0.5-0.2-1-0.6-1.5-1.2v5.5h-2.9V162z M81.7,167.2
		c0,1.2,0.2,2.1,0.7,2.7c0.5,0.6,1.1,0.9,1.8,0.9c0.7,0,1.2-0.3,1.7-0.8c0.4-0.5,0.7-1.4,0.7-2.6c0-1.1-0.2-2-0.7-2.5
		c-0.5-0.6-1-0.8-1.7-0.8c-0.7,0-1.3,0.3-1.8,0.8C81.9,165.4,81.7,166.2,81.7,167.2z"/>
	<path class="st1" d="M93.9,165.3l-2.6-0.5c0.3-1.1,0.8-1.8,1.5-2.3s1.8-0.8,3.2-0.8c1.3,0,2.2,0.2,2.9,0.5c0.6,0.3,1.1,0.7,1.3,1.2
		c0.3,0.5,0.4,1.3,0.4,2.6l0,3.4c0,1,0,1.7,0.1,2.1c0.1,0.5,0.3,0.9,0.5,1.5h-2.9c-0.1-0.2-0.2-0.5-0.3-0.9c0-0.2-0.1-0.3-0.1-0.3
		c-0.5,0.5-1,0.8-1.6,1.1c-0.6,0.2-1.2,0.4-1.8,0.4c-1.1,0-2-0.3-2.7-0.9c-0.6-0.6-1-1.4-1-2.3c0-0.6,0.1-1.2,0.4-1.6
		c0.3-0.5,0.7-0.9,1.2-1.1c0.5-0.3,1.3-0.5,2.3-0.7c1.3-0.3,2.3-0.5,2.8-0.7v-0.3c0-0.6-0.1-0.9-0.4-1.2c-0.3-0.2-0.8-0.4-1.5-0.4
		c-0.5,0-0.9,0.1-1.2,0.3C94.3,164.4,94.1,164.8,93.9,165.3z M97.8,167.6c-0.4,0.1-1,0.3-1.8,0.4c-0.8,0.2-1.3,0.3-1.6,0.5
		c-0.4,0.3-0.6,0.6-0.6,1c0,0.4,0.2,0.8,0.5,1s0.7,0.4,1.1,0.4c0.5,0,1-0.2,1.5-0.5c0.3-0.3,0.6-0.6,0.7-1c0.1-0.2,0.1-0.7,0.1-1.4
		V167.6z"/>
	<path class="st1" d="M113.3,172.9h-2.9v-5.6c0-1.2-0.1-1.9-0.2-2.3c-0.1-0.3-0.3-0.6-0.6-0.8c-0.3-0.2-0.6-0.3-1-0.3
		c-0.5,0-0.9,0.1-1.3,0.4c-0.4,0.3-0.7,0.6-0.8,1.1c-0.1,0.5-0.2,1.3-0.2,2.5v4.9h-2.9V162h2.7v1.6c1-1.2,2.1-1.8,3.6-1.8
		c0.6,0,1.2,0.1,1.7,0.3c0.5,0.2,0.9,0.5,1.2,0.9c0.3,0.4,0.5,0.8,0.6,1.2c0.1,0.5,0.2,1.1,0.2,1.9V172.9z"/>
	<path class="st1" d="M129.3,172.9v-1.6c-0.4,0.6-0.9,1-1.6,1.4c-0.6,0.3-1.3,0.5-2,0.5c-0.7,0-1.4-0.2-2-0.5
		c-0.6-0.3-1-0.8-1.3-1.4c-0.3-0.6-0.4-1.4-0.4-2.4V162h2.9v5c0,1.5,0.1,2.5,0.2,2.8c0.1,0.3,0.3,0.6,0.6,0.8
		c0.3,0.2,0.6,0.3,1.1,0.3c0.5,0,0.9-0.1,1.3-0.4c0.4-0.3,0.7-0.6,0.8-1c0.1-0.4,0.2-1.4,0.2-2.9V162h2.9v10.9H129.3z"/>
	<path class="st1" d="M144.8,172.9H142v-5.6c0-1.2-0.1-1.9-0.2-2.3c-0.1-0.3-0.3-0.6-0.6-0.8c-0.3-0.2-0.6-0.3-1-0.3
		c-0.5,0-0.9,0.1-1.3,0.4c-0.4,0.3-0.7,0.6-0.8,1.1c-0.1,0.5-0.2,1.3-0.2,2.5v4.9h-2.9V162h2.7v1.6c1-1.2,2.1-1.8,3.6-1.8
		c0.6,0,1.2,0.1,1.7,0.3c0.5,0.2,0.9,0.5,1.2,0.9c0.3,0.4,0.5,0.8,0.6,1.2c0.1,0.5,0.2,1.1,0.2,1.9V172.9z"/>
	<path class="st1" d="M147.8,160.5v-2.7h2.9v2.7H147.8z M147.8,172.9V162h2.9v10.9H147.8z"/>
	<path class="st1" d="M152.9,167.3c0-1,0.2-1.9,0.7-2.8c0.5-0.9,1.1-1.6,2-2.1c0.9-0.5,1.8-0.7,2.9-0.7c1.6,0,3,0.5,4.1,1.6
		c1.1,1.1,1.6,2.4,1.6,4.1c0,1.6-0.5,3-1.6,4.1c-1.1,1.1-2.4,1.6-4,1.6c-1,0-2-0.2-2.9-0.7c-0.9-0.5-1.6-1.1-2.1-2
		C153.2,169.6,152.9,168.5,152.9,167.3z M155.9,167.4c0,1.1,0.3,1.9,0.8,2.5c0.5,0.6,1.1,0.9,1.9,0.9s1.4-0.3,1.9-0.9
		c0.5-0.6,0.8-1.4,0.8-2.5c0-1.1-0.3-1.9-0.8-2.5c-0.5-0.6-1.1-0.9-1.9-0.9s-1.4,0.3-1.9,0.9C156.1,165.5,155.9,166.3,155.9,167.4z"
		/>
	<path class="st1" d="M176.3,172.9h-2.9v-5.6c0-1.2-0.1-1.9-0.2-2.3c-0.1-0.3-0.3-0.6-0.6-0.8c-0.3-0.2-0.6-0.3-1-0.3
		c-0.5,0-0.9,0.1-1.3,0.4c-0.4,0.3-0.7,0.6-0.8,1.1c-0.1,0.5-0.2,1.3-0.2,2.5v4.9h-2.9V162h2.7v1.6c1-1.2,2.1-1.8,3.6-1.8
		c0.6,0,1.2,0.1,1.7,0.3c0.5,0.2,0.9,0.5,1.2,0.9c0.3,0.4,0.5,0.8,0.6,1.2c0.1,0.5,0.2,1.1,0.2,1.9V172.9z"/>
	<path class="st1" d="M179.3,160.5v-2.7h2.9v2.7H179.3z M179.3,172.9V162h2.9v10.9H179.3z"/>
	<path class="st1" d="M195,172.9h-2.9v-5.6c0-1.2-0.1-1.9-0.2-2.3c-0.1-0.3-0.3-0.6-0.6-0.8c-0.3-0.2-0.6-0.3-1-0.3
		c-0.5,0-0.9,0.1-1.3,0.4c-0.4,0.3-0.7,0.6-0.8,1.1c-0.1,0.5-0.2,1.3-0.2,2.5v4.9h-2.9V162h2.7v1.6c1-1.2,2.1-1.8,3.6-1.8
		c0.6,0,1.2,0.1,1.7,0.3c0.5,0.2,0.9,0.5,1.2,0.9c0.3,0.4,0.5,0.8,0.6,1.2c0.1,0.5,0.2,1.1,0.2,1.9V172.9z"/>
</g>
<g class="st3">
	<path class="st1" d="M38.6,192.5c0-1,0.2-1.9,0.7-2.8s1.1-1.6,2-2.1c0.9-0.5,1.8-0.7,2.9-0.7c1.6,0,3,0.5,4,1.6
		c1.1,1.1,1.6,2.4,1.6,4.1c0,1.6-0.5,3-1.6,4.1c-1.1,1.1-2.4,1.6-4,1.6c-1,0-2-0.2-2.9-0.7c-0.9-0.5-1.6-1.1-2.1-2
		C38.8,194.8,38.6,193.7,38.6,192.5z M41.6,192.6c0,1.1,0.3,1.9,0.8,2.5s1.1,0.9,1.9,0.9s1.4-0.3,1.9-0.9c0.5-0.6,0.8-1.4,0.8-2.5
		c0-1.1-0.3-1.9-0.8-2.5c-0.5-0.6-1.1-0.9-1.9-0.9s-1.4,0.3-1.9,0.9S41.6,191.5,41.6,192.6z"/>
	<path class="st1" d="M51.1,194.9l2.9-0.4c0.1,0.6,0.4,1,0.7,1.3c0.4,0.3,0.9,0.4,1.6,0.4c0.7,0,1.3-0.1,1.7-0.4
		c0.3-0.2,0.4-0.4,0.4-0.8c0-0.2-0.1-0.4-0.2-0.5c-0.1-0.1-0.5-0.3-1-0.4c-2.3-0.5-3.8-1-4.4-1.4c-0.9-0.6-1.3-1.4-1.3-2.5
		c0-0.9,0.4-1.7,1.1-2.4s1.9-1,3.5-1c1.5,0,2.6,0.2,3.3,0.7c0.7,0.5,1.2,1.2,1.5,2.2l-2.7,0.5c-0.1-0.4-0.3-0.7-0.7-1
		c-0.3-0.2-0.8-0.3-1.4-0.3c-0.8,0-1.3,0.1-1.6,0.3c-0.2,0.2-0.3,0.3-0.3,0.6c0,0.2,0.1,0.4,0.3,0.5c0.3,0.2,1.2,0.5,2.7,0.8
		c1.5,0.3,2.6,0.8,3.2,1.3c0.6,0.5,0.9,1.2,0.9,2.1c0,1-0.4,1.9-1.3,2.6c-0.8,0.7-2.1,1.1-3.7,1.1c-1.5,0-2.7-0.3-3.5-0.9
		C51.9,196.8,51.4,196,51.1,194.9z"/>
	<path class="st1" d="M65.9,190.5l-2.6-0.5c0.3-1.1,0.8-1.8,1.5-2.3s1.8-0.8,3.2-0.8c1.3,0,2.2,0.2,2.9,0.5c0.6,0.3,1.1,0.7,1.3,1.2
		c0.3,0.5,0.4,1.3,0.4,2.6l0,3.4c0,1,0,1.7,0.1,2.1c0.1,0.5,0.3,0.9,0.5,1.5h-2.9c-0.1-0.2-0.2-0.5-0.3-0.9c0-0.2-0.1-0.3-0.1-0.3
		c-0.5,0.5-1,0.8-1.6,1.1c-0.6,0.2-1.2,0.4-1.8,0.4c-1.1,0-2-0.3-2.7-0.9c-0.6-0.6-1-1.4-1-2.3c0-0.6,0.1-1.2,0.4-1.6
		c0.3-0.5,0.7-0.9,1.2-1.1c0.5-0.3,1.3-0.5,2.3-0.7c1.3-0.3,2.3-0.5,2.8-0.7v-0.3c0-0.6-0.1-0.9-0.4-1.2c-0.3-0.2-0.8-0.4-1.5-0.4
		c-0.5,0-0.9,0.1-1.2,0.3C66.3,189.6,66.1,190,65.9,190.5z M69.8,192.8c-0.4,0.1-1,0.3-1.8,0.4c-0.8,0.2-1.3,0.3-1.6,0.5
		c-0.4,0.3-0.6,0.6-0.6,1c0,0.4,0.2,0.8,0.5,1s0.7,0.4,1.1,0.4c0.5,0,1-0.2,1.5-0.5c0.3-0.3,0.6-0.6,0.7-1c0.1-0.2,0.1-0.7,0.1-1.4
		V192.8z"/>
	<path class="st1" d="M78.2,198.1h-2.9v-10.9H78v1.5c0.5-0.7,0.9-1.2,1.2-1.4c0.4-0.2,0.8-0.3,1.2-0.3c0.7,0,1.3,0.2,1.9,0.5
		l-0.9,2.5c-0.5-0.3-0.9-0.5-1.4-0.5c-0.4,0-0.7,0.1-1,0.3c-0.3,0.2-0.5,0.6-0.7,1.2c-0.2,0.6-0.2,1.8-0.2,3.7V198.1z"/>
	<path class="st1" d="M85.8,190.5l-2.6-0.5c0.3-1.1,0.8-1.8,1.5-2.3s1.8-0.8,3.2-0.8c1.3,0,2.2,0.2,2.9,0.5c0.6,0.3,1.1,0.7,1.3,1.2
		c0.3,0.5,0.4,1.3,0.4,2.6l0,3.4c0,1,0,1.7,0.1,2.1c0.1,0.5,0.3,0.9,0.5,1.5h-2.9c-0.1-0.2-0.2-0.5-0.3-0.9c0-0.2-0.1-0.3-0.1-0.3
		c-0.5,0.5-1,0.8-1.6,1.1c-0.6,0.2-1.2,0.4-1.8,0.4c-1.1,0-2-0.3-2.7-0.9c-0.6-0.6-1-1.4-1-2.3c0-0.6,0.1-1.2,0.4-1.6
		c0.3-0.5,0.7-0.9,1.2-1.1c0.5-0.3,1.3-0.5,2.3-0.7c1.3-0.3,2.3-0.5,2.8-0.7v-0.3c0-0.6-0.1-0.9-0.4-1.2c-0.3-0.2-0.8-0.4-1.5-0.4
		c-0.5,0-0.9,0.1-1.2,0.3C86.2,189.6,86,190,85.8,190.5z M89.6,192.8c-0.4,0.1-1,0.3-1.8,0.4c-0.8,0.2-1.3,0.3-1.6,0.5
		c-0.4,0.3-0.6,0.6-0.6,1c0,0.4,0.2,0.8,0.5,1s0.7,0.4,1.1,0.4c0.5,0,1-0.2,1.5-0.5c0.3-0.3,0.6-0.6,0.7-1c0.1-0.2,0.1-0.7,0.1-1.4
		V192.8z"/>
	<path class="st1" d="M98.2,183v5.5c0.9-1.1,2-1.6,3.3-1.6c0.7,0,1.3,0.1,1.8,0.4s0.9,0.6,1.2,0.9c0.3,0.4,0.5,0.8,0.6,1.3
		c0.1,0.5,0.1,1.2,0.1,2.2v6.4h-2.9v-5.8c0-1.1-0.1-1.9-0.2-2.2c-0.1-0.3-0.3-0.6-0.6-0.7c-0.3-0.2-0.6-0.3-1-0.3
		c-0.5,0-0.9,0.1-1.3,0.3s-0.7,0.6-0.8,1.1c-0.2,0.5-0.3,1.2-0.3,2.1v5.5h-2.9v-15H98.2z"/>
	<path class="st1" d="M107.5,192.5c0-1,0.2-1.9,0.7-2.8c0.5-0.9,1.1-1.6,2-2.1c0.9-0.5,1.8-0.7,2.9-0.7c1.6,0,3,0.5,4.1,1.6
		c1.1,1.1,1.6,2.4,1.6,4.1c0,1.6-0.5,3-1.6,4.1c-1.1,1.1-2.4,1.6-4,1.6c-1,0-2-0.2-2.9-0.7c-0.9-0.5-1.6-1.1-2.1-2
		C107.7,194.8,107.5,193.7,107.5,192.5z M110.4,192.6c0,1.1,0.3,1.9,0.8,2.5c0.5,0.6,1.1,0.9,1.9,0.9s1.4-0.3,1.9-0.9
		c0.5-0.6,0.8-1.4,0.8-2.5c0-1.1-0.3-1.9-0.8-2.5c-0.5-0.6-1.1-0.9-1.9-0.9s-1.4,0.3-1.9,0.9C110.7,190.7,110.4,191.5,110.4,192.6z"
		/>
	<path class="st1" d="M121,185.7V183h2.9v2.7H121z M121,198.1v-10.9h2.9v10.9H121z"/>
	<path class="st1" d="M131.8,187.2v2.3h-2v4.4c0,0.9,0,1.4,0.1,1.6c0,0.1,0.1,0.3,0.3,0.4c0.1,0.1,0.3,0.1,0.5,0.1
		c0.3,0,0.7-0.1,1.2-0.3l0.2,2.2c-0.7,0.3-1.4,0.4-2.3,0.4c-0.5,0-1-0.1-1.4-0.3c-0.4-0.2-0.7-0.4-0.9-0.7c-0.2-0.3-0.3-0.7-0.4-1.1
		c-0.1-0.3-0.1-1-0.1-2v-4.7h-1.3v-2.3h1.3V185l2.9-1.7v3.8H131.8z"/>
	<path class="st1" d="M138.8,187.2v2.3h-2v4.4c0,0.9,0,1.4,0.1,1.6c0,0.1,0.1,0.3,0.3,0.4c0.1,0.1,0.3,0.1,0.5,0.1
		c0.3,0,0.7-0.1,1.2-0.3l0.2,2.2c-0.7,0.3-1.4,0.4-2.3,0.4c-0.5,0-1-0.1-1.4-0.3c-0.4-0.2-0.7-0.4-0.9-0.7c-0.2-0.3-0.3-0.7-0.4-1.1
		c-0.1-0.3-0.1-1-0.1-2v-4.7h-1.3v-2.3h1.3V185l2.9-1.7v3.8H138.8z"/>
	<path class="st1" d="M142.9,190.5l-2.6-0.5c0.3-1.1,0.8-1.8,1.5-2.3s1.8-0.8,3.2-0.8c1.3,0,2.2,0.2,2.9,0.5
		c0.6,0.3,1.1,0.7,1.3,1.2c0.3,0.5,0.4,1.3,0.4,2.6l0,3.4c0,1,0,1.7,0.1,2.1c0.1,0.5,0.3,0.9,0.5,1.5h-2.9c-0.1-0.2-0.2-0.5-0.3-0.9
		c0-0.2-0.1-0.3-0.1-0.3c-0.5,0.5-1,0.8-1.6,1.1c-0.6,0.2-1.2,0.4-1.8,0.4c-1.1,0-2-0.3-2.7-0.9c-0.6-0.6-1-1.4-1-2.3
		c0-0.6,0.1-1.2,0.4-1.6c0.3-0.5,0.7-0.9,1.2-1.1c0.5-0.3,1.3-0.5,2.3-0.7c1.3-0.3,2.3-0.5,2.8-0.7v-0.3c0-0.6-0.1-0.9-0.4-1.2
		c-0.3-0.2-0.8-0.4-1.5-0.4c-0.5,0-0.9,0.1-1.2,0.3C143.4,189.6,143.1,190,142.9,190.5z M146.8,192.8c-0.4,0.1-1,0.3-1.8,0.4
		c-0.8,0.2-1.3,0.3-1.6,0.5c-0.4,0.3-0.6,0.6-0.6,1c0,0.4,0.2,0.8,0.5,1s0.7,0.4,1.1,0.4c0.5,0,1-0.2,1.5-0.5c0.3-0.3,0.6-0.6,0.7-1
		c0.1-0.2,0.1-0.7,0.1-1.4V192.8z"/>
	<path class="st1" d="M152.3,187.2h2.7v1.5c1-1.2,2.1-1.7,3.4-1.7c0.7,0,1.3,0.1,1.8,0.4c0.5,0.3,0.9,0.7,1.3,1.3
		c0.5-0.6,1-1,1.5-1.3c0.6-0.3,1.1-0.4,1.8-0.4c0.8,0,1.5,0.2,2,0.5c0.6,0.3,1,0.8,1.2,1.4c0.2,0.5,0.3,1.2,0.3,2.3v7h-2.9v-6.2
		c0-1.1-0.1-1.8-0.3-2.1c-0.3-0.4-0.7-0.6-1.2-0.6c-0.4,0-0.8,0.1-1.1,0.4c-0.4,0.2-0.6,0.6-0.8,1.1c-0.2,0.5-0.2,1.2-0.2,2.3v5.2
		h-2.9v-6c0-1.1-0.1-1.7-0.2-2.1c-0.1-0.3-0.3-0.5-0.5-0.7c-0.2-0.2-0.5-0.2-0.9-0.2c-0.4,0-0.8,0.1-1.2,0.4s-0.6,0.6-0.8,1
		c-0.2,0.5-0.2,1.2-0.2,2.2v5.3h-2.9V187.2z"/>
	<path class="st1" d="M173.3,190.5l-2.6-0.5c0.3-1.1,0.8-1.8,1.5-2.3s1.8-0.8,3.2-0.8c1.3,0,2.2,0.2,2.9,0.5
		c0.6,0.3,1.1,0.7,1.3,1.2c0.3,0.5,0.4,1.3,0.4,2.6l0,3.4c0,1,0,1.7,0.1,2.1c0.1,0.5,0.3,0.9,0.5,1.5h-2.9c-0.1-0.2-0.2-0.5-0.3-0.9
		c0-0.2-0.1-0.3-0.1-0.3c-0.5,0.5-1,0.8-1.6,1.1c-0.6,0.2-1.2,0.4-1.8,0.4c-1.1,0-2-0.3-2.7-0.9c-0.6-0.6-1-1.4-1-2.3
		c0-0.6,0.1-1.2,0.4-1.6c0.3-0.5,0.7-0.9,1.2-1.1c0.5-0.3,1.3-0.5,2.3-0.7c1.3-0.3,2.3-0.5,2.8-0.7v-0.3c0-0.6-0.1-0.9-0.4-1.2
		c-0.3-0.2-0.8-0.4-1.5-0.4c-0.5,0-0.9,0.1-1.2,0.3C173.7,189.6,173.5,190,173.3,190.5z M177.1,192.8c-0.4,0.1-1,0.3-1.8,0.4
		c-0.8,0.2-1.3,0.3-1.6,0.5c-0.4,0.3-0.6,0.6-0.6,1c0,0.4,0.2,0.8,0.5,1s0.7,0.4,1.1,0.4c0.5,0,1-0.2,1.5-0.5c0.3-0.3,0.6-0.6,0.7-1
		c0.1-0.2,0.1-0.7,0.1-1.4V192.8z"/>
</g>
</svg>
